<?xml version="1.0" encoding="iso-8859-1"?>
<!-- Generator: Adobe Illustrator 19.0.0, SVG Export Plug-In . SVG Version: 6.00 Build 0)  -->
<svg version="1.1" id="Capa_1" xmlns="http://www.w3.org/2000/svg" xmlns:xlink="http://www.w3.org/1999/xlink" x="0px" y="0px"
	 viewBox="0 0 512 512" style="enable-background:new 0 0 512 512;" xml:space="preserve">
<circle style="fill:#F7F7F7;" cx="256" cy="256" r="256"/>
<path style="fill:#E2E1E4;" d="M512,256c0-6.748-0.265-13.434-0.778-20.05l-92.615-92.615l-0.042,0.042
	c-10.033-10.968-24.461-17.851-40.498-17.85c-17.425,0-32.941,8.131-42.994,20.794c-10.052-12.664-25.569-20.794-42.994-20.794
	c-30.308,0-54.854,24.57-54.878,54.878c-0.021,25.577,14.191,48.374,31.786,66.803l-0.039,0.039l178.586,178.586
	C487.635,380.64,512,321.17,512,256z"/>
<path style="fill:#DF3A5C;" d="M378.068,125.526c-17.425,0-32.941,8.131-42.994,20.794c-10.052-12.664-25.569-20.794-42.994-20.794
	c-30.309,0-54.854,24.569-54.878,54.878c-0.053,67.119,97.872,115.133,97.872,115.133s97.872-47.354,97.872-115.133
	C432.945,150.095,408.375,125.526,378.068,125.526z"/>
<g>
</g>
<g>
</g>
<g>
</g>
<g>
</g>
<g>
</g>
<g>
</g>
<g>
</g>
<g>
</g>
<g>
</g>
<g>
</g>
<g>
</g>
<g>
</g>
<g>
</g>
<g>
</g>
<g>
</g>
</svg>
